<svg width="15" height="15" viewBox="0 0 15 15" fill="none" xmlns="http://www.w3.org/2000/svg">
<g id="white">
<path id="Union" fill-rule="evenodd" clip-rule="evenodd" d="M7.53101 11.0905C6.75288 10.9736 6.02438 10.6534 5.44159 10.1475C5.41597 10.1249 5.39036 10.1008 5.36608 10.0781L5.36606 10.0781L5.36153 10.0738C5.30709 10.0242 5.25586 9.97295 5.20462 9.92011C5.15339 9.86728 5.10536 9.81284 5.05733 9.75841L5.05732 9.7584L5.03284 9.72981C4.99423 9.68482 4.9553 9.63944 4.91963 9.59189C4.37686 8.89541 4.08066 8.04523 4.08066 7.14542C4.08066 6.21999 4.39287 5.34419 4.96606 4.63651C4.97166 4.62931 4.97727 4.6225 4.98287 4.6157L4.98287 4.61569C4.98848 4.60889 4.99408 4.60209 4.99969 4.59488C5.07814 4.50042 5.15979 4.40915 5.24785 4.32269C5.42718 4.14337 5.62091 3.98647 5.82585 3.84717L5.82585 3.84717L5.82586 3.84716C5.88509 3.80714 5.94433 3.76711 6.00517 3.73189C6.01718 3.72469 6.02959 3.71748 6.04199 3.71028L6.042 3.71027C6.05441 3.70307 6.06681 3.69587 6.07882 3.68866C6.52392 3.43889 7.01706 3.27078 7.53261 3.19232C7.87685 3.14109 8.17945 2.95856 8.38599 2.67837C8.59253 2.39818 8.67899 2.05395 8.62616 1.70971C8.57332 1.36548 8.3908 1.06127 8.11221 0.854731C7.84963 0.660999 7.53261 0.576141 7.21079 0.608163V0.606562L7.18197 0.611365C7.17557 0.612166 7.16916 0.612566 7.16276 0.612966C7.15636 0.613367 7.14995 0.613767 7.14355 0.614568C7.02827 0.632179 6.91459 0.652994 6.80091 0.675409C5.52164 0.921977 4.34324 1.5384 3.4034 2.47824C0.835247 5.04639 0.830444 9.22363 3.39059 11.7966L3.405 11.811L3.4066 11.8126L3.4082 11.8142C4.44731 12.8517 5.77301 13.4969 7.20919 13.6827V13.6747C7.53101 13.7067 7.84963 13.6218 8.1106 13.4281C8.3908 13.2216 8.57332 12.9174 8.62456 12.5731C8.67579 12.2289 8.59093 11.8846 8.38439 11.6045C8.17785 11.3243 7.87524 11.1417 7.53101 11.0905ZM11.6874 4.63171C12.7346 4.63171 13.5863 3.80395 13.5863 2.78725C13.5863 1.74014 12.7346 0.88836 11.6874 0.88836C10.6708 0.88836 9.84299 1.74014 9.84299 2.78725C9.84299 3.80395 10.6708 4.63171 11.6874 4.63171ZM11.5273 8.54478C12.845 8.54478 13.3302 9.26847 13.5047 9.87529C13.8713 11.1498 13.1316 13.3625 11.6266 14.3039L11.3384 14.4848V12.2257C10.4018 12.1296 9.68128 11.3419 9.68128 10.3892C9.68128 9.37254 10.5106 8.54478 11.5273 8.54478Z" fill="white"/>
</g>
</svg>
