<svg width="10" height="10" viewBox="0 0 10 10" fill="none" xmlns="http://www.w3.org/2000/svg">
<g id="white">
<path id="Union" fill-rule="evenodd" clip-rule="evenodd" d="M4.55536 7.74178C4.06174 7.66763 3.5996 7.4645 3.22989 7.14354C3.21364 7.1292 3.1974 7.11397 3.182 7.09952L3.17911 7.09682C3.14457 7.06533 3.11207 7.03283 3.07957 6.99931C3.04707 6.96579 3.0166 6.93126 2.98613 6.89673L2.9706 6.87859C2.94611 6.85005 2.92141 6.82126 2.89878 6.79109C2.55446 6.34927 2.36656 5.80994 2.36656 5.23913C2.36656 4.65206 2.56462 4.09648 2.92823 3.64755C2.93179 3.64297 2.93534 3.63866 2.9389 3.63434C2.94245 3.63002 2.94601 3.62571 2.94956 3.62114C2.99933 3.56121 3.05113 3.50332 3.10699 3.44847C3.22075 3.33471 3.34365 3.23518 3.47366 3.14681L3.47366 3.14681C3.51124 3.12142 3.54882 3.09603 3.58741 3.07368L3.61078 3.05997L3.63414 3.04626C3.9165 2.88781 4.22933 2.78116 4.55638 2.7314C4.77475 2.69889 4.96672 2.58311 5.09774 2.40536C5.22876 2.22762 5.28361 2.00924 5.25009 1.79087C5.21657 1.5725 5.10079 1.37952 4.92406 1.24849C4.75748 1.1256 4.55638 1.07176 4.35223 1.09208V1.09106L4.33394 1.09411C4.32988 1.09462 4.32582 1.09487 4.32175 1.09513C4.31769 1.09538 4.31363 1.09563 4.30957 1.09614C4.23644 1.10731 4.16432 1.12052 4.09221 1.13474C3.28068 1.29115 2.53313 1.68219 1.93692 2.2784C0.307762 3.90756 0.304715 6.55749 1.9288 8.1897L1.93794 8.19884L1.93895 8.19985L1.93997 8.20087C2.59915 8.85903 3.44014 9.26835 4.35121 9.38617V9.3811C4.55536 9.40141 4.75748 9.34758 4.92304 9.22468C5.10079 9.09366 5.21657 8.90068 5.24908 8.6823C5.28158 8.46393 5.22775 8.24556 5.09672 8.06781C4.9657 7.89007 4.77374 7.77428 4.55536 7.74178ZM7.19209 3.6445C7.85635 3.6445 8.39669 3.11939 8.39669 2.47443C8.39669 1.81017 7.85635 1.26983 7.19209 1.26983C6.54713 1.26983 6.02202 1.81017 6.02202 2.47443C6.02202 3.11939 6.54713 3.6445 7.19209 3.6445ZM7.09052 6.12684C7.92643 6.12684 8.23418 6.58593 8.34489 6.97088C8.57749 7.77936 8.10824 9.18304 7.15349 9.78026L6.97067 9.89504V8.4619C6.37649 8.40096 5.91943 7.90124 5.91943 7.29691C5.91943 6.65195 6.44556 6.12684 7.09052 6.12684Z" fill="white"/>
</g>
</svg>
